<svg width="48" height="38" viewBox="0 0 48 38" fill="none" xmlns="http://www.w3.org/2000/svg">
<g clip-path="url(#clip0_1_3)">
<path d="M13.4457 35.0914C15.6987 31.6333 16.8005 27.9377 16.9082 23.8681C17.1642 23.8557 17.3973 23.8326 17.6286 23.8326C19.6768 23.8291 21.7267 23.838 23.7749 23.8273C24.6189 23.822 25.1468 23.4799 25.3428 22.8666C25.6536 21.89 24.9879 21.0002 23.9162 20.9949C21.845 20.9843 19.7739 20.9914 17.7027 20.9914C17.4626 20.9914 17.2242 20.9914 16.9894 20.9914C16.7104 19.109 16.4385 17.2674 16.1507 15.3106C16.9311 15.3106 17.7186 15.3638 18.4973 15.2982C19.5902 15.2043 20.1817 13.9972 19.5214 13.1535C19.2618 12.8221 18.7374 12.5704 18.3101 12.5278C17.3725 12.4339 16.4173 12.5119 15.4709 12.4871C15.2855 12.4817 15.0171 12.3878 14.9341 12.2478C14.4556 11.4378 14.0195 10.6012 13.5481 9.73441H22.9115C22.8303 10.0145 22.7561 10.2768 22.6802 10.5391C22.4295 11.4041 22.7755 12.1609 23.5436 12.4268C24.3011 12.6909 25.0744 12.3027 25.364 11.4502C26.2151 8.94567 27.0379 6.43053 27.8748 3.92071C28.2226 2.8785 30.1931 2.41588 30.933 3.22413C31.053 3.35529 31.0495 3.62825 31.0513 3.83563C31.0583 6.24619 31.0513 8.65853 31.0601 11.0691C31.0636 11.7674 31.5245 12.3311 32.1495 12.4693C32.7922 12.6111 33.4844 12.2868 33.7333 11.677C33.8375 11.42 33.8605 11.1205 33.8799 10.8387C33.9028 10.4895 33.8852 10.1385 33.8852 9.68833H35.2977C36.5319 9.68833 37.7679 9.74151 38.9986 9.67415C40.3034 9.60325 41.241 10.1899 42.0126 11.1435C43.4234 12.8841 44.1332 14.9419 44.5923 17.0973C45.2632 20.2434 45.2915 23.4055 44.7724 26.6402C44.4863 26.6402 44.225 26.6402 43.9637 26.6402C40.3723 26.6402 36.7809 26.6402 33.1895 26.6402C33.0129 26.6402 32.8364 26.6367 32.6616 26.642C31.6357 26.6775 31.0442 27.2145 31.0566 28.0919C31.0689 28.9533 31.6904 29.4797 32.711 29.4797C36.2353 29.4815 39.7614 29.4797 43.2857 29.4797C43.5258 29.4797 43.7677 29.4797 44.1403 29.4797C43.381 31.5695 42.6394 33.5688 40.6972 34.7688C40.2928 35.0187 39.7366 35.1162 39.2493 35.118C30.8341 35.1392 22.4171 35.1339 14.0019 35.1321C13.8536 35.1321 13.7052 35.1109 13.4457 35.0914ZM33.8287 15.3C32.508 15.3 31.1872 15.2929 29.8665 15.3017C28.8742 15.3088 28.2421 15.8796 28.2403 16.7374C28.2403 17.5953 28.8742 18.1749 29.863 18.1785C32.5256 18.1873 35.1883 18.1856 37.8527 18.1785C38.8891 18.1767 39.5265 17.5989 39.5106 16.7073C39.4947 15.8512 38.8626 15.3053 37.8562 15.3C36.5143 15.2929 35.1706 15.2982 33.8287 15.2982V15.3ZM23.9956 29.4851C23.0951 29.4851 22.1946 29.478 21.2924 29.4868C20.4078 29.4957 19.8286 30.0097 19.7845 30.8091C19.7386 31.6492 20.2806 32.2873 21.1811 32.3051C23.0704 32.3405 24.9597 32.3387 26.849 32.3033C27.6841 32.2873 28.2827 31.6102 28.2527 30.8552C28.2209 30.0771 27.6029 29.4992 26.7642 29.4904C25.8407 29.4797 24.9191 29.4886 23.9956 29.4868V29.4851Z" fill="#DDA15E"/>
<path d="M46.2884 29.1906H14.552C13.0912 30.6051 10.0032 33.5029 9.33821 33.7777C8.67326 34.0524 11.1769 35.413 12.5118 36.059H21.3905L41.5657 35.3721L44.5882 33.0172L46.2884 29.1906Z" fill="#BC6C25"/>
<path d="M2.88335 21.337C2.91867 18.9885 3.35479 15.6988 4.98804 12.6944C5.4224 11.8933 6.00331 11.1329 6.65837 10.5019C7.83785 9.36573 9.14445 9.40827 10.3698 10.5019C11.4822 11.4962 12.1708 12.7777 12.6952 14.1496C13.9206 17.3578 14.2737 20.6901 14.0566 24.1038C13.8977 26.6119 13.4845 29.0721 12.3827 31.3391C11.8813 32.3742 11.2156 33.3809 10.4246 34.2087C9.18859 35.5008 7.76899 35.4299 6.47121 34.1715C5.18756 32.9254 4.47776 31.3355 3.9357 29.6623C3.16586 27.289 2.86746 24.8447 2.88335 21.337ZM12.7376 21.9414C12.6935 21.3264 12.6299 20.2257 12.5293 19.1267C12.4816 18.6021 12.3792 18.0792 12.2679 17.5616C11.9519 16.1082 11.5369 14.6885 10.5605 13.524C9.42519 12.168 7.71602 12.1042 6.55243 13.4229C6.081 13.9564 5.71197 14.614 5.42593 15.2716C4.63314 17.0955 4.3983 19.0487 4.2906 21.0162C4.14405 23.6802 4.30825 26.323 5.1805 28.8594C5.48949 29.758 5.96446 30.6513 6.56126 31.3834C7.60478 32.6595 9.26275 32.6631 10.3698 31.456C10.836 30.9473 11.2156 30.3217 11.4963 29.6871C12.5169 27.3811 12.6952 24.9156 12.7394 21.945L12.7376 21.9414Z" fill="white"/>
<path d="M33.8287 15.3C35.1706 15.3 36.5143 15.2947 37.8562 15.3018C38.8626 15.3071 39.4947 15.8548 39.5106 16.7091C39.5265 17.5989 38.8891 18.1767 37.8527 18.1802C35.19 18.1873 32.5274 18.1873 29.863 18.1802C28.8742 18.1767 28.2403 17.5971 28.2403 16.7392C28.2403 15.8814 28.8742 15.3106 29.8665 15.3035C31.1872 15.2929 32.5079 15.3018 33.8287 15.3018V15.3Z" fill="black"/>
<path d="M23.9956 29.485C24.919 29.485 25.8407 29.4762 26.7642 29.4868C27.6029 29.4975 28.2208 30.0753 28.2526 30.8516C28.2826 31.6085 27.6841 32.2856 26.8489 32.2997C24.9596 32.3352 23.0704 32.337 21.1811 32.3015C20.2824 32.2856 19.7385 31.6457 19.7844 30.8055C19.8286 30.0079 20.4077 29.4921 21.2923 29.4833C22.1928 29.4744 23.0933 29.4815 23.9956 29.4833V29.485Z" fill="black"/>
<path d="M12.7376 21.9414C12.6917 24.9139 12.5133 27.3776 11.4945 29.6836C11.2138 30.3181 10.8342 30.9438 10.368 31.4525C9.26096 32.6595 7.60299 32.656 6.55947 31.3798C5.96091 30.6478 5.48771 29.7527 5.17871 28.8558C4.3047 26.3194 4.14226 23.6767 4.28881 21.0126C4.39652 19.047 4.63135 17.0937 5.42414 15.2681C5.71018 14.6105 6.07921 13.9529 6.55065 13.4194C7.71599 12.1007 9.42341 12.1645 10.5587 13.5204C11.5352 14.6849 11.9519 16.1064 12.2662 17.5581C12.3792 18.0739 12.4798 18.5968 12.5275 19.1232C12.6299 20.2221 12.6917 21.3246 12.7358 21.9379L12.7376 21.9414ZM8.50702 29.1837C10.4334 26.2042 10.4387 18.6127 8.50349 15.6102C6.54358 18.4213 6.58243 26.4949 8.50702 29.1837Z" fill="black"/>
<path d="M8.50531 29.1855C6.58072 26.4985 6.54187 18.4231 8.50178 15.6119C10.437 18.6145 10.4299 26.206 8.50531 29.1855Z" fill="white"/>
<ellipse cx="8.47604" cy="22.3285" rx="7.18618" ry="14.3771" fill="black"/>
<path d="M33.8876 6.88172C35.6038 6.88172 37.2124 6.93489 38.8156 6.86931C41.1357 6.77537 42.8908 7.77682 44.2875 9.53334C46.0779 11.7826 46.9978 14.4183 47.4975 17.2064C48.3803 22.1232 48.1631 26.9709 46.3851 31.6839C45.6753 33.5645 44.6847 35.2749 43.1415 36.6061C42.0345 37.5596 40.7738 38.0613 39.2835 38.0577C29.2403 38.04 19.1972 38.0152 9.15397 38.0737C6.81797 38.0878 5.08937 37.1378 3.69802 35.3901C2.02592 33.288 1.12895 30.8313 0.608077 28.2294C-0.401892 23.1885 -0.205902 18.2131 1.58979 13.3601C2.33315 11.3501 3.38726 9.5227 5.09997 8.1579C6.17173 7.30534 7.38475 6.87286 8.76198 6.8764C13.607 6.88526 18.452 6.87286 23.2988 6.89058C23.772 6.89058 23.9945 6.76119 24.1322 6.29149C24.4695 5.15179 24.9215 4.04399 25.2322 2.8972C25.5042 1.89753 26.1221 1.25767 26.9767 0.77024C28.8819 -0.316285 31.3291 -0.112451 33.0489 1.25944C33.6281 1.72206 33.9123 2.26975 33.8947 3.02482C33.8629 4.27973 33.8858 5.53819 33.8858 6.87995L33.8876 6.88172ZM13.4463 35.1668C13.7077 35.1863 13.856 35.2076 14.0025 35.2076C22.4178 35.2076 30.8347 35.2147 39.25 35.1934C39.7373 35.1934 40.2935 35.0941 40.6978 34.8442C42.6418 33.6443 43.3817 31.6449 44.1409 29.5552C43.7683 29.5552 43.5282 29.5552 43.2863 29.5552C39.762 29.5552 36.236 29.5552 32.7117 29.5552C31.6911 29.5552 31.0713 29.0287 31.0572 28.1673C31.0449 27.2899 31.6364 26.7529 32.6622 26.7174C32.8388 26.7121 33.0154 26.7157 33.1902 26.7157C36.7816 26.7157 40.3729 26.7157 43.9643 26.7157C44.2257 26.7157 44.487 26.7157 44.773 26.7157C45.2904 23.4809 45.2639 20.3188 44.5929 17.1727C44.1321 15.0174 43.424 12.9595 42.0133 11.219C41.2417 10.2654 40.3041 9.67868 38.9992 9.74958C37.7686 9.81693 36.5326 9.76376 35.2984 9.76376H33.8858C33.8858 10.2122 33.9035 10.5649 33.8805 10.9141C33.8611 11.1977 33.8399 11.4955 33.734 11.7525C33.485 12.3622 32.7929 12.6866 32.1502 12.5448C31.5251 12.4065 31.0643 11.8429 31.0608 11.1445C31.0502 8.73395 31.0608 6.32162 31.0519 3.91106C31.0519 3.70368 31.0537 3.42895 30.9336 3.29956C30.1938 2.49131 28.2233 2.95392 27.8755 3.99614C27.0403 6.50596 26.2157 9.02109 25.3647 11.5256C25.0751 12.3782 24.3017 12.7663 23.5443 12.5022C22.7762 12.2346 22.4319 11.4795 22.6808 10.6145C22.7568 10.3522 22.8309 10.0917 22.9121 9.80984H13.5487C14.0202 10.6766 14.4545 11.5132 14.9348 12.3232C15.0178 12.4632 15.2862 12.5572 15.4716 12.5625C16.418 12.5855 17.3714 12.5093 18.3108 12.6033C18.7381 12.6458 19.2642 12.8975 19.522 13.2289C20.1806 14.0744 19.5909 15.2815 18.4979 15.3736C17.7193 15.441 16.9318 15.386 16.1514 15.386C16.4409 17.3428 16.7128 19.1844 16.9901 21.0668C17.2231 21.0668 17.4633 21.0668 17.7034 21.0668C19.7745 21.0668 21.8457 21.0597 23.9168 21.0703C24.9886 21.0757 25.6542 21.9654 25.3435 22.9421C25.1475 23.5554 24.6196 23.8992 23.7756 23.9028C21.7274 23.9134 19.6774 23.9063 17.6292 23.9081C17.3979 23.9081 17.1649 23.9293 16.9088 23.9435C16.7994 28.0131 15.6976 31.7087 13.4463 35.1668ZM2.8858 21.4124C2.86991 24.9202 3.16831 27.3644 3.93815 29.7377C4.48021 31.4109 5.19002 33.0008 6.47366 34.2469C7.77144 35.5053 9.19105 35.5762 10.427 34.2841C11.218 33.4564 11.8837 32.4496 12.3852 31.4145C13.4869 29.1457 13.9001 26.6873 14.059 24.1793C14.2744 20.7655 13.9231 17.435 12.6977 14.2251C12.1733 12.8532 11.4847 11.5717 10.3723 10.5773C9.14867 9.48371 7.84207 9.44117 6.66083 10.5773C6.00576 11.2083 5.42662 11.9687 4.99049 12.7699C3.35724 15.7742 2.92112 19.0639 2.8858 21.4124Z" fill="black"/>
<ellipse cx="5.64471" cy="19.224" rx="2.07294" ry="2.08029" fill="white"/>
<ellipse cx="11.5871" cy="19.224" rx="2.119" ry="2.08029" fill="white"/>
</g>
<defs>
<clipPath id="clip0_1_3">
<rect width="48" height="38" fill="white"/>
</clipPath>
</defs>
</svg>
