<svg width="150" height="150" viewBox="0 0 150 150" fill="none" xmlns="http://www.w3.org/2000/svg">
<g clip-path="url(#clip0_51_2)">
<rect width="150" height="150" fill="#F3F3F3"/>
<rect width="150" height="150" fill="#D4D9D5"/>
<circle cx="74.5" cy="74.5" r="58.5" fill="white"/>
<g clip-path="url(#clip1_51_2)">
<path d="M57.5066 100.237C61.1741 94.6 62.9676 88.5761 63.1429 81.9425C63.5596 81.9223 63.939 81.8847 64.3156 81.8847C67.6496 81.879 70.9866 81.8934 74.3206 81.8761C75.6945 81.8674 76.5539 81.3098 76.8729 80.3101C77.3788 78.7182 76.2952 77.2678 74.5506 77.2592C71.1791 77.2418 67.8077 77.2534 64.4363 77.2534C64.0454 77.2534 63.6574 77.2534 63.2751 77.2534C62.821 74.1851 62.3783 71.1832 61.9099 67.9936C63.1802 67.9936 64.4621 68.0802 65.7297 67.9733C67.5088 67.8202 68.4716 65.8527 67.3967 64.4774C66.9742 63.9371 66.1205 63.5269 65.425 63.4575C63.8988 63.3044 62.3439 63.4315 60.8033 63.3911C60.5015 63.3824 60.0646 63.2293 59.9295 63.0011C59.1506 61.6807 58.4407 60.317 57.6733 58.9042H72.9151C72.7829 59.3607 72.6622 59.7883 72.5386 60.2159C72.1305 61.6258 72.6938 62.8595 73.9441 63.2929C75.1771 63.7233 76.436 63.0906 76.9074 61.7009C78.2928 57.6185 79.6321 53.5188 80.9945 49.4277C81.5607 47.7288 84.7683 46.9748 85.9726 48.2922C86.168 48.506 86.1623 48.951 86.1652 49.289C86.1767 53.2183 86.1652 57.1505 86.1795 61.0797C86.1853 62.2181 86.9355 63.1368 87.9529 63.3622C88.9991 63.5933 90.1258 63.0646 90.5311 62.0707C90.7006 61.6518 90.738 61.1635 90.7696 60.7042C90.807 60.135 90.7783 59.5629 90.7783 58.8291H93.0776C95.0867 58.8291 97.0986 58.9158 99.1019 58.806C101.226 58.6904 102.752 59.6467 104.008 61.2011C106.305 64.0383 107.46 67.3926 108.207 70.9059C109.3 76.0342 109.346 81.1885 108.501 86.4612C108.035 86.4612 107.61 86.4612 107.184 86.4612C101.338 86.4612 95.4919 86.4612 89.6458 86.4612C89.3584 86.4612 89.071 86.4554 88.7864 86.4641C87.1165 86.5219 86.1537 87.3973 86.1738 88.8275C86.1939 90.2316 87.2056 91.0897 88.8669 91.0897C94.6038 91.0926 100.344 91.0897 106.08 91.0897C106.471 91.0897 106.865 91.0897 107.472 91.0897C106.236 94.496 105.029 97.755 101.867 99.711C101.209 100.118 100.303 100.277 99.51 100.28C85.8116 100.315 72.1104 100.306 58.412 100.303C58.1705 100.303 57.9291 100.269 57.5066 100.237ZM90.6863 67.9762C88.5364 67.9762 86.3865 67.9647 84.2366 67.9791C82.6213 67.9907 81.5923 68.921 81.5895 70.3194C81.5895 71.7177 82.6213 72.6625 84.2308 72.6683C88.5651 72.6827 92.8994 72.6798 97.2366 72.6683C98.9237 72.6654 99.9613 71.7235 99.9354 70.2702C99.9096 68.8748 98.8806 67.9849 97.2423 67.9762C95.0579 67.9647 92.8707 67.9733 90.6863 67.9733V67.9762ZM74.6799 91.0983C73.2141 91.0983 71.7482 91.0868 70.2795 91.1012C68.8395 91.1157 67.8968 91.9535 67.8249 93.2566C67.7502 94.626 68.6326 95.6661 70.0984 95.695C73.1738 95.7528 76.2492 95.7499 79.3246 95.6921C80.6841 95.6661 81.6584 94.5625 81.6096 93.3317C81.5578 92.0633 80.5519 91.1215 79.1866 91.107C77.6834 91.0897 76.1831 91.1041 74.6799 91.1012V91.0983Z" fill="#DDA15E"/>
<path d="M110.969 90.6183H59.3078C56.9298 92.9241 51.9031 97.6476 50.8207 98.0954C49.7382 98.5433 53.8137 100.761 55.9867 101.814H70.4395L103.281 100.694L108.201 96.8559L110.969 90.6183Z" fill="#BC6C25"/>
<path d="M40.3132 77.8168C40.3707 73.9886 41.0806 68.6263 43.7393 63.7291C44.4463 62.4232 45.3919 61.1838 46.4583 60.1552C48.3782 58.3032 50.5051 58.3726 52.4998 60.1552C54.3106 61.776 55.4315 63.8649 56.2851 66.1011C58.2798 71.3306 58.8547 76.7622 58.5011 82.3268C58.2425 86.415 57.5699 90.4252 55.7764 94.1204C54.9601 95.8077 53.8766 97.4488 52.5889 98.798C50.577 100.904 48.2661 100.789 46.1536 98.7373C44.0641 96.7062 42.9086 94.1147 42.0263 91.3873C40.7731 87.5187 40.2874 83.5345 40.3132 77.8168ZM56.3541 78.802C56.2823 77.7994 56.1788 76.0053 56.015 74.214C55.9373 73.3588 55.7706 72.5065 55.5896 71.6628C55.0751 69.2937 54.3997 66.9795 52.8102 65.0813C50.9621 62.871 48.1799 62.767 46.2858 64.9166C45.5184 65.7862 44.9177 66.8581 44.4521 67.93C43.1616 70.903 42.7793 74.0868 42.604 77.2938C42.3654 81.6363 42.6327 85.944 44.0526 90.0785C44.5555 91.5433 45.3287 92.9994 46.3002 94.1927C47.9988 96.2729 50.6977 96.2787 52.4998 94.3111C53.2586 93.4819 53.8766 92.462 54.3335 91.4277C55.9948 87.6689 56.2851 83.65 56.357 78.8078L56.3541 78.802Z" fill="white"/>
<path d="M90.6864 67.9762C92.8708 67.9762 95.0581 67.9676 97.2425 67.9791C98.8807 67.9878 99.9097 68.8805 99.9356 70.2731C99.9614 71.7235 98.9239 72.6654 97.2367 72.6712C92.9024 72.6827 88.5681 72.6827 84.231 72.6712C82.6214 72.6654 81.5896 71.7206 81.5896 70.3223C81.5896 68.9239 82.6214 67.9936 84.2367 67.982C86.3866 67.9647 88.5365 67.9791 90.6864 67.9791V67.9762Z" fill="black"/>
<path d="M74.6799 91.0984C76.1831 91.0984 77.6834 91.0839 79.1866 91.1012C80.5519 91.1186 81.5578 92.0604 81.6096 93.3259C81.6584 94.5596 80.6841 95.6633 79.3246 95.6864C76.2492 95.7442 73.1738 95.747 70.0984 95.6893C68.6355 95.6633 67.7502 94.6203 67.8249 93.2508C67.8968 91.9507 68.8395 91.1099 70.2795 91.0955C71.7453 91.081 73.2112 91.0926 74.6799 91.0955V91.0984Z" fill="black"/>
<path d="M56.3541 78.802C56.2794 83.6472 55.9891 87.6631 54.3307 91.422C53.8737 92.4563 53.2558 93.4762 52.497 94.3054C50.6948 96.2729 47.996 96.2671 46.2973 94.1869C45.323 92.9937 44.5527 91.5346 44.0497 90.0727C42.627 85.9383 42.3626 81.6305 42.6011 77.2881C42.7764 74.084 43.1587 70.9001 44.4492 67.9242C44.9148 66.8523 45.5155 65.7805 46.283 64.9108C48.1799 62.7613 50.9593 62.8653 52.8074 65.0755C54.3968 66.9737 55.0751 69.2908 55.5867 71.6571C55.7707 72.4978 55.9345 73.3501 56.0121 74.2082C56.1788 75.9995 56.2794 77.7966 56.3513 78.7962L56.3541 78.802ZM49.4676 90.6072C52.6033 85.7505 52.6119 73.3761 49.4618 68.4818C46.2715 73.0641 46.3347 86.2243 49.4676 90.6072Z" fill="black"/>
<path d="M49.4647 90.6101C46.3319 86.2301 46.2686 73.067 49.459 68.4847C52.6091 73.379 52.5976 85.7534 49.4647 90.6101Z" fill="white"/>
<ellipse cx="49.417" cy="79.4329" rx="11.6977" ry="23.4352" fill="black"/>
<path d="M90.7823 54.2542C93.576 54.2542 96.1944 54.3409 98.8041 54.234C102.581 54.0809 105.438 55.7133 107.711 58.5764C110.626 62.2428 112.123 66.539 112.937 71.0837C114.374 79.0983 114.02 87.0002 111.126 94.6826C109.97 97.748 108.358 100.536 105.846 102.706C104.044 104.26 101.992 105.078 99.5658 105.072C83.2174 105.043 66.869 105.003 50.5206 105.098C46.718 105.121 43.9042 103.573 41.6393 100.724C38.9174 97.2973 37.4573 93.2929 36.6095 89.0515C34.9654 80.8347 35.2845 72.7248 38.2075 64.8142C39.4175 61.5379 41.1334 58.5591 43.9214 56.3344C45.666 54.9447 47.6406 54.2398 49.8825 54.2456C57.7693 54.26 65.6561 54.2398 73.5457 54.2687C74.316 54.2687 74.6782 54.0578 74.9023 53.2921C75.4513 51.4344 76.1871 49.6286 76.693 47.7593C77.1356 46.1298 78.1416 45.0868 79.5327 44.2923C82.6339 42.5213 86.6176 42.8535 89.417 45.0897C90.3598 45.8438 90.8225 46.7366 90.7938 47.9674C90.742 50.0129 90.7794 52.0642 90.7794 54.2513L90.7823 54.2542ZM57.5077 100.36C57.9331 100.392 58.1745 100.426 58.4131 100.426C72.1115 100.426 85.8128 100.438 99.5112 100.403C100.304 100.403 101.21 100.241 101.868 99.834C105.033 97.878 106.237 94.619 107.473 91.2126C106.866 91.2126 106.475 91.2126 106.082 91.2126C100.345 91.2126 94.6049 91.2126 88.868 91.2126C87.2068 91.2126 86.1979 90.3546 86.1749 88.9504C86.1548 87.5203 87.1177 86.6448 88.7876 86.5871C89.075 86.5784 89.3624 86.5842 89.647 86.5842C95.4931 86.5842 101.339 86.5842 107.185 86.5842C107.611 86.5842 108.036 86.5842 108.502 86.5842C109.344 81.3114 109.301 76.1571 108.208 71.0288C107.458 67.5156 106.306 64.1612 104.009 61.3241C102.753 59.7697 101.227 58.8134 99.103 58.9289C97.0997 59.0387 95.0878 58.952 93.0787 58.952H90.7794C90.7794 59.683 90.8081 60.2579 90.7708 60.8271C90.7391 61.2894 90.7047 61.7748 90.5322 62.1937C90.1269 63.1876 89.0003 63.7163 87.9541 63.4852C86.9366 63.2598 86.1864 62.341 86.1807 61.2027C86.1634 57.2734 86.1807 53.3412 86.1663 49.412C86.1663 49.0739 86.1692 48.6261 85.9737 48.4152C84.7694 47.0977 81.5618 47.8518 80.9956 49.5506C79.6361 53.6417 78.2939 57.7415 76.9085 61.8239C76.4372 63.2136 75.1783 63.8463 73.9452 63.4158C72.695 62.9796 72.1345 61.7488 72.5398 60.3388C72.6633 59.9112 72.7841 59.4865 72.9163 59.0272H57.6744C58.4418 60.44 59.1489 61.8037 59.9307 63.124C60.0658 63.3523 60.5026 63.5054 60.8044 63.5141C62.345 63.5516 63.8971 63.4274 65.4261 63.5805C66.1217 63.6498 66.9782 64.0601 67.3978 64.6004C68.4699 65.9785 67.5099 67.9461 65.7308 68.0963C64.4633 68.2061 63.1814 68.1165 61.911 68.1165C62.3824 71.3062 62.825 74.308 63.2762 77.3764C63.6556 77.3764 64.0465 77.3764 64.4374 77.3764C67.8088 77.3764 71.1803 77.3648 74.5517 77.3821C76.2963 77.3908 77.3799 78.8412 76.874 80.4331C76.555 81.4328 75.6956 81.9933 74.3218 81.999C70.9877 82.0164 67.6508 82.0048 64.3167 82.0077C63.9402 82.0077 63.5608 82.0424 63.144 82.0655C62.9658 88.6991 61.1723 94.723 57.5077 100.36ZM40.3172 77.9397C40.2913 83.6574 40.777 87.6416 42.0302 91.5102C42.9126 94.2376 44.068 96.8292 46.1575 98.8603C48.2701 100.912 50.5809 101.027 52.5929 98.921C53.8805 97.5717 54.9641 95.9307 55.7803 94.2434C57.5738 90.5452 58.2464 86.5379 58.5051 82.4498C58.8557 76.8852 58.2838 71.4564 56.2891 66.2241C55.4354 63.9879 54.3145 61.899 52.5038 60.2782C50.5119 58.4955 48.385 58.4262 46.4622 60.2782C45.3959 61.3067 44.4531 62.5462 43.7432 63.8521C41.0846 68.7493 40.3747 74.1116 40.3172 77.9397Z" fill="black"/>
<ellipse cx="44.8084" cy="74.3725" rx="3.37435" ry="3.39094" fill="white"/>
<ellipse cx="54.4813" cy="74.3725" rx="3.44934" ry="3.39094" fill="white"/>
</g>
</g>
<defs>
<clipPath id="clip0_51_2">
<rect width="150" height="150" fill="white"/>
</clipPath>
<clipPath id="clip1_51_2">
<rect width="78.1349" height="61.9412" fill="white" transform="translate(35.6196 43.0368)"/>
</clipPath>
</defs>
</svg>
