<svg width="75" height="75" viewBox="0 0 75 75" fill="none" xmlns="http://www.w3.org/2000/svg">
<rect width="75" height="75" fill="white"/>
<g clip-path="url(#clip0_17_38)">
<path d="M50.9126 19.5907C53.3004 19.5907 55.5383 19.6648 57.7689 19.5734C60.9968 19.4425 63.4386 20.8377 65.3818 23.2849C67.8728 26.4185 69.1526 30.0905 69.8478 33.9749C71.0761 40.8249 70.774 47.5787 68.3002 54.1448C67.3127 56.7648 65.9345 59.1478 63.7875 61.0023C62.2472 62.3308 60.4932 63.0297 58.4199 63.0247C44.4469 63 30.4739 62.9655 16.5009 63.0469C13.2508 63.0667 10.8458 61.7431 8.91003 59.3083C6.58366 56.3796 5.33572 52.957 4.61103 49.332C3.20587 42.309 3.47855 35.3775 5.97688 28.6163C7.0111 25.816 8.47768 23.2701 10.8606 21.3686C12.3517 20.1809 14.0394 19.5783 15.9555 19.5833C22.6963 19.5956 29.4372 19.5783 36.1805 19.603C36.8388 19.603 37.1484 19.4228 37.34 18.7684C37.8092 17.1806 38.4381 15.6372 38.8704 14.0395C39.2487 12.6468 40.1085 11.7553 41.2975 11.0762C43.9482 9.5625 47.353 9.84648 49.7457 11.7578C50.5514 12.4023 50.947 13.1653 50.9224 14.2173C50.8782 15.9656 50.9101 17.7189 50.9101 19.5882L50.9126 19.5907ZM22.4728 58.9971C22.8364 59.0243 23.0427 59.0539 23.2466 59.0539C34.9546 59.0539 46.6651 59.0638 58.3732 59.0342C59.0512 59.0342 59.825 58.8959 60.3876 58.5477C63.0923 56.8759 64.1216 54.0905 65.1779 51.1791C64.6596 51.1791 64.3255 51.1791 63.9889 51.1791C59.0856 51.1791 54.1798 51.1791 49.2765 51.1791C47.8566 51.1791 46.9943 50.4457 46.9747 49.2455C46.9575 48.0232 47.7804 47.275 49.2077 47.2256C49.4534 47.2182 49.699 47.2231 49.9422 47.2231C54.9389 47.2231 59.9356 47.2231 64.9322 47.2231C65.2958 47.2231 65.6594 47.2231 66.0574 47.2231C66.7771 42.7165 66.7403 38.3111 65.8068 33.9279C65.1656 30.9252 64.1805 28.0582 62.2177 25.6333C61.1442 24.3047 59.8398 23.4874 58.0244 23.5861C56.3121 23.68 54.5925 23.6059 52.8754 23.6059H50.9101C50.9101 24.2307 50.9347 24.7221 50.9027 25.2085C50.8757 25.6036 50.8462 26.0185 50.6988 26.3766C50.3525 27.226 49.3895 27.6779 48.4953 27.4804C47.6257 27.2878 46.9845 26.5025 46.9796 25.5296C46.9648 22.1712 46.9796 18.8104 46.9673 15.452C46.9673 15.1631 46.9698 14.7803 46.8027 14.6C45.7734 13.474 43.0319 14.1185 42.5479 15.5705C41.386 19.0672 40.2387 22.5712 39.0547 26.0605C38.6518 27.2482 37.5758 27.789 36.5219 27.4211C35.4533 27.0482 34.9743 25.9963 35.3207 24.7912C35.4263 24.4257 35.5295 24.0627 35.6425 23.6701H22.6153C23.2712 24.8776 23.8755 26.0432 24.5437 27.1717C24.6591 27.3668 25.0325 27.4977 25.2905 27.5051C26.6072 27.5372 27.9338 27.431 29.2407 27.5619C29.8351 27.6211 30.5672 27.9718 30.9259 28.4336C31.8422 29.6114 31.0217 31.2931 29.5011 31.4215C28.4177 31.5153 27.3221 31.4388 26.2363 31.4388C26.6391 34.165 27.0175 36.7307 27.4031 39.3532C27.7274 39.3532 28.0615 39.3532 28.3956 39.3532C31.2772 39.3532 34.1587 39.3433 37.0403 39.3581C38.5314 39.3655 39.4576 40.6052 39.0252 41.9658C38.7525 42.8202 38.018 43.2993 36.8438 43.3042C33.9941 43.319 31.142 43.3091 28.2924 43.3116C27.9706 43.3116 27.6463 43.3412 27.2901 43.361C27.1378 49.0307 25.6049 54.1794 22.4728 58.9971ZM7.78001 39.8347C7.7579 44.7216 8.17306 48.1269 9.24413 51.4334C9.9983 53.7645 10.9858 55.9796 12.7718 57.7155C14.5774 59.4688 16.5524 59.5676 18.272 57.7674C19.3726 56.6142 20.2987 55.2116 20.9964 53.7695C22.5293 50.6086 23.1041 47.1836 23.3252 43.6894C23.6249 38.9334 23.1361 34.2934 21.4312 29.8213C20.7016 27.91 19.7435 26.1247 18.1959 24.7393C16.4935 23.2157 14.6756 23.1565 13.0322 24.7393C12.1208 25.6185 11.315 26.6778 10.7082 27.794C8.43592 31.9796 7.82914 36.5628 7.78001 39.8347Z" fill="black"/>
<path fill-rule="evenodd" clip-rule="evenodd" d="M53.1235 19.7104C52.3997 19.7032 51.6655 19.6959 50.9166 19.6959L50.9141 19.6934C50.9141 19.1337 50.9113 18.5843 50.9084 18.0424C50.9018 16.7745 50.8954 15.5473 50.9264 14.3225C50.951 13.2706 50.5555 12.5075 49.7497 11.863C47.357 9.95171 43.9522 9.66773 41.3016 11.1815C40.1126 11.8605 39.2528 12.752 38.8745 14.1447C38.636 15.0259 38.3377 15.8906 38.0395 16.7554L38.0394 16.7554L38.0394 16.7555L38.0394 16.7555L38.0394 16.7555C37.7969 17.4586 37.5544 18.1616 37.344 18.8736C37.1524 19.528 36.8429 19.7083 36.1845 19.7083C32.2315 19.6938 28.2794 19.6937 24.3276 19.6937C21.5381 19.6936 18.7488 19.6936 15.9595 19.6885C14.0434 19.6836 12.3557 20.2861 10.8646 21.4739C8.48171 23.3753 7.01513 25.9212 5.98091 28.7215C3.48257 35.4827 3.20989 42.4143 4.61506 49.4372C5.33974 53.0623 6.58769 56.4848 8.91406 59.4135C10.8498 61.8483 13.2548 63.1719 16.5049 63.1522C29.382 63.0771 42.259 63.1005 55.1361 63.124H55.1376L58.4239 63.1299C60.4972 63.1349 62.2512 62.436 63.7915 61.1075C65.9386 59.253 67.3167 56.87 68.3042 54.25C70.778 47.6839 71.0802 40.9302 69.8519 34.0801C69.1567 30.1957 67.8768 26.5238 65.3858 23.3901C63.4427 20.9429 61.0008 19.5477 57.7729 19.6786C56.2419 19.7413 54.7075 19.7261 53.1235 19.7104H53.1235H53.1235ZM22.8194 59.1315C22.7211 59.1225 22.6094 59.1123 22.4768 59.1024C25.609 54.2846 27.1419 49.1359 27.2942 43.4662C27.397 43.4605 27.4972 43.454 27.5954 43.4476H27.5954H27.5955C27.8375 43.4318 28.0676 43.4168 28.2964 43.4168C29.2463 43.416 30.1964 43.4166 31.1467 43.4171H31.1468H31.1469C33.0473 43.4182 34.9481 43.4193 36.8478 43.4094C38.022 43.4045 38.7565 42.9254 39.0292 42.071C39.4616 40.7104 38.5355 39.4707 37.0443 39.4633C34.9861 39.4528 32.9278 39.4548 30.8696 39.4568C30.0463 39.4576 29.2229 39.4584 28.3996 39.4584H27.4072C27.0215 36.8359 26.6432 34.2702 26.2403 31.544C26.5766 31.544 26.9139 31.5514 27.2514 31.5587H27.2514C28.0037 31.5751 28.7573 31.5915 29.5051 31.5267C31.0257 31.3983 31.8462 29.7167 30.9299 28.5388C30.5712 28.077 29.8392 27.7263 29.2447 27.6671C28.4193 27.5844 27.5861 27.5963 26.7525 27.6082C26.2662 27.6152 25.7797 27.6221 25.2945 27.6103C25.0366 27.6029 24.6632 27.472 24.5477 27.2769C24.0516 26.439 23.5907 25.5807 23.1177 24.7L23.1177 24.6998L23.1177 24.6998L23.1172 24.699L23.1168 24.6982C22.9531 24.3933 22.7879 24.0857 22.6193 23.7753H35.6465C35.5975 23.9457 35.5503 24.1105 35.504 24.2723L35.5039 24.2726C35.4435 24.4836 35.3845 24.6896 35.3247 24.8964C34.9783 26.1015 35.4574 27.1535 36.526 27.5263C37.5798 27.8943 38.6558 27.3535 39.0587 26.1657C39.8974 23.6942 40.7176 21.2152 41.5377 18.7367C41.8754 17.7161 42.213 16.6956 42.552 15.6757C43.0359 14.2237 45.7774 13.5792 46.8067 14.7053C46.9714 14.883 46.9714 15.2574 46.9713 15.5448V15.5572C46.9772 17.1634 46.9769 18.7701 46.9766 20.3769C46.9763 22.1297 46.9759 23.8826 46.9836 25.6348C46.9885 26.6077 47.6297 27.393 48.4993 27.5856C49.3935 27.7831 50.3565 27.3312 50.7029 26.4818C50.8503 26.1237 50.8797 25.7089 50.9068 25.3138C50.9285 24.9822 50.924 24.6484 50.919 24.2716V24.2714C50.9166 24.0954 50.9141 23.91 50.9141 23.7111H52.8794C53.4051 23.7111 53.931 23.7181 54.4568 23.725H54.4569H54.4569C55.6488 23.7407 56.8404 23.7565 58.0284 23.6914C59.8438 23.5926 61.1482 24.41 62.2218 25.7385C64.1846 28.1634 65.1696 31.0304 65.8108 34.0332C66.7443 38.4163 66.7812 42.8217 66.0614 47.3283H64.9363H49.9462C49.8769 47.3283 49.8073 47.3279 49.7376 47.3275H49.7374C49.5628 47.3265 49.3873 47.3255 49.2117 47.3308C47.7845 47.3802 46.9615 48.1284 46.9787 49.3508C46.9984 50.5509 47.8606 51.2843 49.2805 51.2843H63.9929H65.1819C64.1256 54.1957 63.0963 56.9812 60.3916 58.6529C59.829 59.0011 59.0552 59.1394 58.3772 59.1394C49.0105 59.1631 39.6423 59.1615 30.275 59.16H30.2748H30.2746C27.9332 59.1596 25.5919 59.1592 23.2506 59.1592C23.1211 59.1592 22.9907 59.1472 22.8195 59.1315L22.8194 59.1315ZM50.8344 31.4241C51.3944 31.4241 51.9546 31.4234 52.5149 31.4228C53.8226 31.4212 55.1308 31.4197 56.4378 31.4266C57.8381 31.434 58.7175 32.197 58.7397 33.3873C58.7618 34.6269 57.8749 35.4319 56.4329 35.4369C52.7284 35.4467 49.0239 35.4467 45.3169 35.4369C43.9412 35.4319 43.0593 34.6244 43.0593 33.4293C43.0593 32.2341 43.9412 31.4389 45.3218 31.4291C46.5851 31.4189 47.8484 31.4215 49.1116 31.4242C49.6859 31.4254 50.2601 31.4266 50.8344 31.4266V31.4241ZM38.3581 51.1842C37.9568 51.1854 37.5554 51.1866 37.1538 51.1866V51.1842C36.842 51.1836 36.5303 51.1825 36.2187 51.1814L36.2118 51.1814C35.2715 51.1782 34.3321 51.1749 33.3928 51.1842C32.1621 51.1965 31.3563 51.9151 31.2949 53.0263C31.231 54.1968 31.9876 55.0883 33.238 55.1105C35.8666 55.1599 38.4951 55.1574 41.1236 55.108C42.2856 55.0883 43.1184 54.145 43.0766 53.0905C43.0324 52.009 42.1726 51.2039 41.0057 51.1891C40.1225 51.1789 39.2405 51.1816 38.3581 51.1842ZM14.5064 36.891C14.5064 38.4917 13.2152 39.7892 11.6223 39.7892C10.0295 39.7892 8.73828 38.4917 8.73828 36.891C8.73828 35.2904 10.0295 33.9928 11.6223 33.9928C13.2152 33.9928 14.5064 35.2904 14.5064 36.891ZM19.89 39.7892C21.5183 39.7892 22.8382 38.4917 22.8382 36.891C22.8382 35.2904 21.5183 33.9928 19.89 33.9928C18.2618 33.9928 16.9419 35.2904 16.9419 36.891C16.9419 38.4917 18.2618 39.7892 19.89 39.7892Z" fill="black"/>
</g>
<defs>
<clipPath id="clip0_17_38">
<rect width="66.782" height="52.9412" fill="white" transform="translate(3.76904 10.1084)"/>
</clipPath>
</defs>
</svg>
