<svg width="289" height="289" viewBox="0 0 289 289" fill="none" xmlns="http://www.w3.org/2000/svg">
<circle cx="144.5" cy="144.5" r="144.5" fill="white"/>
<path d="M67.2 238.24C63.0667 238.24 60.0267 237.187 58.08 235.08C56.16 232.973 55.2 230.2 55.2 226.76C55.2 223.293 55.7867 220.147 56.96 217.32C58.16 214.467 59.9333 212.133 62.28 210.32C64.6267 208.48 67.16 207.56 69.88 207.56C72.6267 207.56 74.7733 208.227 76.32 209.56C77.8933 210.867 78.68 212.64 78.68 214.88C78.68 217.093 77.9867 218.933 76.6 220.4C75.24 221.867 73.64 222.6 71.8 222.6C69.96 222.6 68.5333 222.2 67.52 221.4C66.5067 220.573 66 219.707 66 218.8C66 217.867 66.36 217.147 67.08 216.64C67.8267 216.107 68.9067 215.84 70.32 215.84C69.9733 216.187 69.8 216.653 69.8 217.24C69.8 217.8 69.9733 218.293 70.32 218.72C70.6667 219.147 71.2 219.36 71.92 219.36C72.64 219.36 73.36 218.987 74.08 218.24C74.8 217.467 75.16 216.453 75.16 215.2C75.16 213.947 74.7733 212.947 74 212.2C73.2533 211.453 72.1867 211.08 70.8 211.08C68.9867 211.08 67.3333 211.813 65.84 213.28C64.3733 214.747 63.2533 216.613 62.48 218.88C61.7067 221.147 61.32 223.533 61.32 226.04C61.32 228.2 61.7867 230.107 62.72 231.76C63.2 232.613 63.9067 233.293 64.84 233.8C65.8 234.307 66.92 234.56 68.2 234.56C70.3867 234.56 72.4933 233.867 74.52 232.48C76.5467 231.067 78.2533 229.253 79.64 227.04L81 229.48C79.4267 232.04 77.4533 234.147 75.08 235.8C72.7067 237.427 70.08 238.24 67.2 238.24ZM90.1278 224C90.1278 222.827 89.5811 222.24 88.4878 222.24C87.4211 222.24 86.5678 222.933 85.9278 224.32C88.8078 226.587 90.2478 229.133 90.2478 231.96C90.2478 234.013 89.6745 235.573 88.5278 236.64C87.3811 237.707 85.9411 238.24 84.2078 238.24C82.4745 238.24 81.2078 237.707 80.4078 236.64C79.6078 235.547 79.2078 234.173 79.2078 232.52C79.2078 232.013 79.2211 231.64 79.2478 231.4L80.6478 219.2C81.6078 218.907 82.5811 218.76 83.5678 218.76C85.1945 218.76 86.0078 219.36 86.0078 220.56V220.64C87.0745 219.387 88.4345 218.76 90.0878 218.76C91.2878 218.76 92.2211 219.04 92.8878 219.6C93.5545 220.133 93.8878 220.853 93.8878 221.76C93.8878 222.667 93.5411 223.413 92.8478 224C92.1811 224.56 91.3011 224.84 90.2078 224.84C90.1545 224.84 90.1011 224.84 90.0478 224.84C90.1011 224.547 90.1278 224.267 90.1278 224ZM87.6478 231.76C87.6478 230.213 86.8478 228.667 85.2478 227.12C84.7678 230.96 84.5278 232.893 84.5278 232.92C84.5278 234.04 84.9811 234.6 85.8878 234.6C87.0611 234.6 87.6478 233.653 87.6478 231.76ZM97.8522 208.56C98.4655 207.92 99.2122 207.6 100.092 207.6C100.972 207.6 101.719 207.92 102.332 208.56C102.972 209.173 103.292 209.92 103.292 210.8C103.292 211.68 102.972 212.427 102.332 213.04C101.719 213.653 100.972 213.96 100.092 213.96C99.2122 213.96 98.4655 213.653 97.8522 213.04C97.2389 212.427 96.9322 211.68 96.9322 210.8C96.9322 209.92 97.2389 209.173 97.8522 208.56ZM96.2122 220.28C96.4789 219.8 96.9855 219.44 97.7322 219.2C98.4789 218.933 99.2122 218.8 99.9322 218.8C100.679 218.8 101.332 218.893 101.892 219.08C100.852 227.107 100.332 231.16 100.332 231.24C100.199 231.773 100.132 232.227 100.132 232.6C100.132 232.947 100.159 233.253 100.212 233.52C100.319 234.213 100.799 234.56 101.652 234.56C102.532 234.56 103.332 234 104.052 232.88C104.799 231.733 105.359 230.44 105.732 229C105.919 229.107 106.212 229.427 106.612 229.96C107.012 230.493 107.252 230.893 107.332 231.16C106.799 233.293 105.892 235.013 104.612 236.32C103.332 237.627 101.799 238.28 100.012 238.28C98.2255 238.28 96.8922 237.84 96.0122 236.96C95.1589 236.08 94.7322 234.947 94.7322 233.56C94.7322 233.267 94.7455 232.96 94.7722 232.64L96.2122 220.28ZM113.11 210.16C113.11 210.32 112.75 213.187 112.03 218.76H117.91V221.84H111.63L111.51 222.84C114.63 225.453 116.19 228.307 116.19 231.4C116.19 233.827 115.563 235.573 114.31 236.64C113.083 237.707 111.603 238.24 109.87 238.24C108.137 238.24 106.87 237.787 106.07 236.88C105.27 235.947 104.87 234.827 104.87 233.52C104.87 233.227 104.897 232.907 104.95 232.56L106.19 221.92L106.03 221.84H102.79C102.763 221.573 102.75 221.147 102.75 220.56C102.75 219.947 102.87 219.347 103.11 218.76H106.55L107.83 207.88C108.39 207.667 109.137 207.56 110.07 207.56C112.097 207.56 113.11 208.427 113.11 210.16ZM113.51 231.36C113.51 229.52 112.71 227.707 111.11 225.92C110.63 229.893 110.39 232.187 110.39 232.8C110.39 234 110.777 234.6 111.55 234.6C112.11 234.6 112.577 234.347 112.95 233.84C113.323 233.307 113.51 232.48 113.51 231.36ZM126.86 210.16C126.86 210.32 126.5 213.187 125.78 218.76H131.66V221.84H125.38L125.26 222.84C128.38 225.453 129.94 228.307 129.94 231.4C129.94 233.827 129.313 235.573 128.06 236.64C126.833 237.707 125.353 238.24 123.62 238.24C121.887 238.24 120.62 237.787 119.82 236.88C119.02 235.947 118.62 234.827 118.62 233.52C118.62 233.227 118.647 232.907 118.7 232.56L119.94 221.92L119.78 221.84H116.54C116.513 221.573 116.5 221.147 116.5 220.56C116.5 219.947 116.62 219.347 116.86 218.76H120.3L121.58 207.88C122.14 207.667 122.887 207.56 123.82 207.56C125.847 207.56 126.86 208.427 126.86 210.16ZM127.26 231.36C127.26 229.52 126.46 227.707 124.86 225.92C124.38 229.893 124.14 232.187 124.14 232.8C124.14 234 124.527 234.6 125.3 234.6C125.86 234.6 126.327 234.347 126.7 233.84C127.073 233.307 127.26 232.48 127.26 231.36ZM139.01 229.04C140.663 228.693 141.89 228.027 142.69 227.04C143.517 226.053 143.93 225.107 143.93 224.2C143.93 223.267 143.677 222.64 143.17 222.32C142.69 221.973 142.157 221.8 141.57 221.8C140.317 221.8 139.21 222.507 138.25 223.92C137.317 225.307 136.85 226.973 136.85 228.92C136.85 230.84 137.303 232.28 138.21 233.24C139.143 234.173 140.29 234.64 141.65 234.64C143.65 234.64 145.57 233.947 147.41 232.56C149.25 231.173 150.743 229.36 151.89 227.12C152.477 227.68 153.01 228.373 153.49 229.2C152.61 231.2 151.05 233.16 148.81 235.08C147.69 236.013 146.357 236.773 144.81 237.36C143.29 237.947 141.717 238.24 140.09 238.24C137.423 238.24 135.317 237.427 133.77 235.8C132.117 234.04 131.29 231.787 131.29 229.04C131.29 226.293 132.317 223.893 134.37 221.84C136.45 219.787 138.93 218.76 141.81 218.76C143.863 218.76 145.53 219.213 146.81 220.12C148.09 221 148.743 222.2 148.77 223.72C148.77 225.773 147.943 227.44 146.29 228.72C144.663 230 142.423 230.893 139.57 231.4L139.01 229.04ZM162.003 224C162.003 222.827 161.456 222.24 160.363 222.24C159.296 222.24 158.443 222.933 157.803 224.32C160.683 226.587 162.123 229.133 162.123 231.96C162.123 234.013 161.549 235.573 160.403 236.64C159.256 237.707 157.816 238.24 156.083 238.24C154.349 238.24 153.083 237.707 152.283 236.64C151.483 235.547 151.083 234.173 151.083 232.52C151.083 232.013 151.096 231.64 151.123 231.4L152.523 219.2C153.483 218.907 154.456 218.76 155.443 218.76C157.069 218.76 157.883 219.36 157.883 220.56V220.64C158.949 219.387 160.309 218.76 161.963 218.76C163.163 218.76 164.096 219.04 164.763 219.6C165.429 220.133 165.763 220.853 165.763 221.76C165.763 222.667 165.416 223.413 164.723 224C164.056 224.56 163.176 224.84 162.083 224.84C162.029 224.84 161.976 224.84 161.923 224.84C161.976 224.547 162.003 224.267 162.003 224ZM159.523 231.76C159.523 230.213 158.723 228.667 157.123 227.12C156.643 230.96 156.403 232.893 156.403 232.92C156.403 234.04 156.856 234.6 157.763 234.6C158.936 234.6 159.523 233.653 159.523 231.76ZM189.636 234.52C189.93 234.627 190.25 234.68 190.596 234.68C190.97 234.68 191.316 234.64 191.636 234.56C191.983 234.48 192.29 234.293 192.556 234C192.85 233.68 193.076 233.427 193.236 233.24C193.396 233.053 193.596 232.64 193.836 232C194.13 231.253 194.49 230.2 194.916 228.84C196.036 229.88 196.703 230.667 196.916 231.2C195.636 235.893 193.383 238.24 190.156 238.24C188.636 238.24 186.703 237.253 184.356 235.28C183.13 237.253 181.223 238.24 178.636 238.24C177.49 238.24 176.45 237.853 175.516 237.08C174.61 236.307 174.156 235.2 174.156 233.76C174.156 232.32 174.636 231.147 175.596 230.24C176.556 229.307 177.796 228.84 179.316 228.84C179.61 228.84 180.023 228.867 180.556 228.92L181.116 223.84C179.943 224.213 178.13 224.693 175.676 225.28V222.28C177.676 221.827 179.596 221.32 181.436 220.76L182.236 214.24C182.796 209.787 185.063 207.56 189.036 207.56C190.61 207.56 191.863 208 192.796 208.88C193.756 209.733 194.236 210.947 194.236 212.52C194.236 216.307 191.796 219.36 186.916 221.68L185.716 231.12L185.676 231.52C187.65 233.28 188.97 234.28 189.636 234.52ZM191.236 212.84C191.236 211.72 190.77 211.16 189.836 211.16C188.716 211.16 188.01 212.48 187.716 215.12L187.316 218.28C189.93 216.733 191.236 214.92 191.236 212.84ZM177.196 233.48C177.196 234.28 177.65 234.68 178.556 234.68C179.436 234.68 179.983 233.893 180.196 232.32C179.69 232.107 179.21 232 178.756 232C178.33 232 177.956 232.147 177.636 232.44C177.343 232.733 177.196 233.08 177.196 233.48ZM204.511 218.76C206.964 218.76 209.004 219.547 210.631 221.12C212.284 222.693 213.111 224.613 213.111 226.88C213.111 230.32 212.098 233.08 210.071 235.16C208.071 237.213 205.644 238.24 202.791 238.24C199.938 238.24 197.671 237.427 195.991 235.8C194.338 234.173 193.511 232.16 193.511 229.76C193.511 226.4 194.538 223.733 196.591 221.76C198.671 219.76 201.311 218.76 204.511 218.76ZM203.711 222C202.458 222 201.404 222.72 200.551 224.16C199.698 225.6 199.231 227.413 199.151 229.6C199.151 231.147 199.458 232.427 200.071 233.44C200.711 234.453 201.671 234.96 202.951 234.96C204.231 234.96 205.298 234.253 206.151 232.84C207.031 231.427 207.471 229.813 207.471 228C207.471 226.187 207.164 224.747 206.551 223.68C205.938 222.56 204.991 222 203.711 222ZM225.572 218.76C227.039 218.76 228.386 219 229.612 219.48C230.439 218.973 231.306 218.72 232.212 218.72C233.119 218.72 233.839 218.84 234.372 219.08L232.932 230.36C234.906 228.84 236.399 227.453 237.412 226.2L238.572 228.64C237.052 230.24 235.026 231.947 232.492 233.76L231.412 242.12C231.119 244.627 230.292 246.547 228.932 247.88C227.599 249.24 225.866 249.92 223.732 249.92C222.506 249.92 221.306 249.52 220.132 248.72C218.906 247.867 218.292 246.493 218.292 244.6C218.292 242.28 219.399 240.16 221.612 238.24C219.719 238.107 218.092 237.32 216.732 235.88C215.372 234.44 214.692 232.56 214.692 230.24C214.692 226.747 215.719 223.96 217.772 221.88C219.826 219.8 222.426 218.76 225.572 218.76ZM226.172 221.88C224.466 221.88 223.106 222.533 222.092 223.84C221.106 225.12 220.519 227.04 220.332 229.6C220.306 229.84 220.292 230.067 220.292 230.28C220.292 231.587 220.599 232.627 221.212 233.4C221.852 234.173 222.666 234.56 223.652 234.56C225.332 234.56 226.599 233.387 227.452 231.04L228.452 222.36C227.626 222.04 226.866 221.88 226.172 221.88ZM221.372 244C221.372 244.72 221.572 245.28 221.972 245.68C222.399 246.107 222.879 246.32 223.412 246.32C224.906 246.32 225.772 245.373 226.012 243.48L226.692 237.48C223.146 239.587 221.372 241.76 221.372 244Z" fill="black"/>
<g clip-path="url(#clip0_8_37)">
<path d="M102.063 169.289C111.122 155.366 115.552 140.486 115.985 124.1C117.014 124.05 117.951 123.958 118.881 123.958C127.117 123.943 135.359 123.979 143.595 123.936C146.988 123.915 149.111 122.538 149.899 120.068C151.149 116.136 148.472 112.554 144.163 112.532C135.835 112.489 127.507 112.518 119.18 112.518C118.214 112.518 117.256 112.518 116.311 112.518C115.19 104.939 114.096 97.524 112.939 89.6453C116.077 89.6453 119.244 89.8594 122.374 89.5953C126.769 89.2171 129.147 84.3571 126.492 80.9601C125.449 79.6256 123.34 78.6122 121.622 78.4409C117.852 78.0627 114.011 78.3767 110.206 78.2768C109.46 78.2554 108.381 77.8772 108.048 77.3134C106.124 74.052 104.37 70.6835 102.475 67.1938H140.123C139.797 68.3213 139.498 69.3776 139.193 70.4338C138.185 73.9164 139.577 76.9637 142.665 78.0342C145.71 79.0975 148.82 77.5346 149.984 74.1019C153.406 64.018 156.715 53.8913 160.08 43.786C161.478 39.5897 169.402 37.7271 172.376 40.9813C172.859 41.5094 172.845 42.6084 172.852 43.4434C172.88 53.1491 172.852 62.8619 172.887 72.5676C172.902 75.3794 174.755 77.6488 177.268 78.2054C179.852 78.7764 182.635 77.4704 183.636 75.0154C184.055 73.9806 184.147 72.7745 184.225 71.6398C184.318 70.2339 184.247 68.8209 184.247 67.0082H189.926C194.889 67.0082 199.858 67.2223 204.807 66.9511C210.053 66.6657 213.823 69.0279 216.926 72.8673C222.598 79.8754 225.452 88.1609 227.298 96.8389C229.996 109.506 230.109 122.238 228.022 135.262C226.872 135.262 225.821 135.262 224.771 135.262C210.33 135.262 195.89 135.262 181.449 135.262C180.739 135.262 180.029 135.248 179.327 135.269C175.202 135.412 172.823 137.574 172.873 141.107C172.923 144.575 175.422 146.695 179.525 146.695C193.696 146.702 207.874 146.695 222.044 146.695C223.01 146.695 223.983 146.695 225.481 146.695C222.428 155.109 219.446 163.159 211.636 167.99C210.011 168.996 207.774 169.389 205.815 169.396C171.979 169.482 138.135 169.46 104.299 169.453C103.703 169.453 103.106 169.367 102.063 169.289ZM184.019 89.6025C178.709 89.6025 173.399 89.5739 168.088 89.6096C164.098 89.6382 161.557 91.9361 161.549 95.3902C161.549 98.8443 164.098 101.178 168.074 101.192C178.78 101.228 189.486 101.221 200.199 101.192C204.367 101.185 206.93 98.8585 206.866 95.2689C206.802 91.8219 204.26 89.6239 200.213 89.6025C194.818 89.5739 189.415 89.5953 184.019 89.5953V89.6025ZM144.482 146.716C140.862 146.716 137.241 146.688 133.613 146.723C130.056 146.759 127.727 148.829 127.55 152.047C127.365 155.43 129.545 157.999 133.166 158.07C140.762 158.213 148.359 158.206 155.955 158.063C159.313 157.999 161.72 155.273 161.599 152.233C161.471 149.1 158.987 146.773 155.614 146.738C151.901 146.695 148.195 146.73 144.482 146.723V146.716Z" fill="#DDA15E"/>
<path d="M234.118 145.53H106.511C100.637 151.226 88.2211 162.893 85.5474 164C82.8737 165.106 92.9405 170.584 98.308 173.185H134.007L215.129 170.419L227.282 160.938L234.118 145.53Z" fill="#BC6C25"/>
<path d="M59.5935 113.91C59.7355 104.454 61.489 91.2083 68.0561 79.1118C69.8026 75.8861 72.1383 72.8246 74.7722 70.284C79.5147 65.7094 84.7683 65.8807 89.6954 70.284C94.1681 74.2875 96.9369 79.4473 99.0454 84.9709C103.972 97.888 105.392 111.305 104.519 125.05C103.88 135.148 102.219 145.053 97.7888 154.181C95.7725 158.349 93.096 162.402 89.9155 165.735C84.9458 170.938 79.2378 170.652 74.0197 165.585C68.8583 160.568 66.0043 154.167 63.8248 147.43C60.7294 137.874 59.5296 128.033 59.5935 113.91ZM99.2158 116.343C99.0383 113.867 98.7827 109.435 98.3781 105.01C98.1864 102.898 97.7746 100.793 97.3273 98.7087C96.0565 92.8568 94.3881 87.1404 90.4621 82.4517C85.8971 76.9923 79.0248 76.7354 74.3462 82.045C72.4507 84.193 70.9669 86.8407 69.8168 89.4884C66.6291 96.8318 65.6849 104.696 65.2518 112.618C64.6625 123.344 65.3228 133.985 68.8299 144.197C70.0723 147.815 71.9821 151.412 74.3817 154.359C78.5775 159.498 85.244 159.512 89.6954 154.652C91.5696 152.604 93.096 150.085 94.2249 147.53C98.3284 138.245 99.0454 128.318 99.2229 116.357L99.2158 116.343Z" fill="white"/>
<path d="M184.019 89.6025C189.415 89.6025 194.818 89.5811 200.213 89.6096C204.26 89.631 206.802 91.8362 206.866 95.276C206.929 98.8586 204.367 101.185 200.199 101.199C189.493 101.228 178.787 101.228 168.074 101.199C164.098 101.185 161.549 98.8514 161.549 95.3974C161.549 91.9433 164.098 89.6453 168.088 89.6168C173.399 89.5739 178.709 89.6096 184.019 89.6096V89.6025Z" fill="black"/>
<path d="M144.482 146.716C148.195 146.716 151.901 146.68 155.614 146.723C158.987 146.766 161.471 149.093 161.599 152.218C161.72 155.266 159.313 157.992 155.955 158.049C148.359 158.192 140.762 158.199 133.166 158.056C129.552 157.992 127.365 155.416 127.55 152.033C127.727 148.821 130.056 146.745 133.613 146.709C137.234 146.673 140.854 146.702 144.482 146.709V146.716Z" fill="black"/>
<path d="M99.2158 116.343C99.0312 128.311 98.3142 138.231 94.2177 147.515C93.0889 150.07 91.5625 152.59 89.6883 154.638C85.2369 159.498 78.5704 159.483 74.3746 154.345C71.9679 151.398 70.0652 147.794 68.8228 144.183C65.3086 133.97 64.6554 123.33 65.2447 112.604C65.6777 104.689 66.622 96.8247 69.8097 89.4741C70.9598 86.8264 72.4436 84.1788 74.3391 82.0307C79.0248 76.7211 85.89 76.978 90.455 82.4374C94.381 87.1261 96.0565 92.8496 97.3202 98.6944C97.7746 100.771 98.1793 102.876 98.371 104.996C98.7827 109.421 99.0312 113.86 99.2087 116.329L99.2158 116.343ZM82.2054 145.503C89.9509 133.506 89.9722 102.941 82.1912 90.8514C74.3107 102.17 74.4669 134.677 82.2054 145.503Z" fill="black"/>
<path d="M82.1983 145.51C74.4598 134.691 74.3036 102.177 82.1841 90.8585C89.9651 102.948 89.9367 133.514 82.1983 145.51Z" fill="white"/>
<ellipse cx="82.0806" cy="117.901" rx="28.8944" ry="57.8869" fill="black"/>
<path d="M184.256 55.708C191.157 55.708 197.625 55.9221 204.071 55.658C213.4 55.2798 220.457 59.3119 226.072 66.3842C233.271 75.4405 236.97 86.0525 238.979 97.2782C242.529 117.075 241.656 136.593 234.507 155.569C231.653 163.141 227.67 170.028 221.465 175.388C217.014 179.227 211.944 181.247 205.952 181.232C165.571 181.161 125.189 181.061 84.8066 181.297C75.4139 181.354 68.4635 177.528 62.8691 170.492C56.1459 162.028 52.5393 152.137 50.445 141.66C46.3841 121.364 47.1721 101.332 54.3923 81.792C57.3812 73.6991 61.6196 66.3414 68.5061 60.8463C72.8155 57.4136 77.6929 55.6723 83.2305 55.6866C102.712 55.7222 122.193 55.6723 141.681 55.7436C143.583 55.7436 144.478 55.2227 145.032 53.3315C146.388 48.7427 148.205 44.2824 149.455 39.6651C150.548 35.64 153.033 33.0638 156.469 31.1012C164.129 26.7265 173.969 27.5472 180.884 33.0709C183.213 34.9335 184.356 37.1387 184.285 40.1789C184.157 45.2315 184.249 50.2985 184.249 55.7008L184.256 55.708ZM102.065 169.593C103.116 169.671 103.713 169.757 104.302 169.757C138.138 169.757 171.981 169.785 205.818 169.7C207.777 169.7 210.013 169.3 211.639 168.294C219.456 163.462 222.43 155.412 225.483 146.998C223.985 146.998 223.02 146.998 222.047 146.998C207.876 146.998 193.699 146.998 179.528 146.998C175.425 146.998 172.933 144.879 172.876 141.411C172.826 137.878 175.205 135.716 179.329 135.573C180.039 135.551 180.749 135.566 181.452 135.566C195.893 135.566 210.333 135.566 224.773 135.566C225.824 135.566 226.875 135.566 228.025 135.566C230.105 122.542 229.999 109.81 227.301 97.1426C225.448 88.4646 222.601 80.1791 216.928 73.171C213.826 69.3316 210.056 66.9694 204.809 67.2549C199.861 67.5261 194.891 67.312 189.929 67.312H184.249C184.249 69.1175 184.32 70.5377 184.228 71.9436C184.15 73.0854 184.065 74.2843 183.639 75.3191C182.638 77.7741 179.855 79.0801 177.271 78.5092C174.757 77.9525 172.904 75.6831 172.89 72.8713C172.848 63.1656 172.89 53.4528 172.855 43.7471C172.855 42.9122 172.862 41.806 172.379 41.285C169.404 38.0308 161.481 39.8934 160.083 44.0897C156.725 54.195 153.409 64.3218 149.987 74.4057C148.823 77.8383 145.713 79.4012 142.668 78.3379C139.579 77.2603 138.195 74.2201 139.196 70.7375C139.501 69.6813 139.799 68.6322 140.126 67.4975H102.477C104.373 70.9873 106.119 74.3557 108.05 77.6171C108.384 78.1809 109.463 78.5591 110.209 78.5805C114.014 78.6733 117.848 78.3664 121.625 78.7447C123.343 78.916 125.458 79.9293 126.495 81.2639C129.143 84.668 126.772 89.528 122.377 89.8991C119.246 90.1703 116.08 89.949 112.942 89.949C114.106 97.8277 115.2 105.243 116.314 112.822C117.251 112.822 118.217 112.822 119.182 112.822C127.51 112.822 135.838 112.793 144.166 112.836C148.475 112.857 151.151 116.44 149.902 120.372C149.114 122.841 146.991 124.226 143.598 124.24C135.362 124.283 127.12 124.254 118.884 124.261C117.954 124.261 117.017 124.347 115.988 124.404C115.547 140.79 111.117 155.669 102.065 169.593ZM59.6033 114.213C59.5394 128.336 60.7393 138.178 63.8346 147.733C66.0142 154.47 68.8682 160.872 74.0295 165.889C79.2477 170.956 84.9557 171.241 89.9253 166.039C93.1059 162.706 95.7824 158.652 97.7987 154.485C102.229 145.35 103.89 135.452 104.529 125.353C105.395 111.608 103.982 98.1989 99.0553 85.2746C96.9467 79.7509 94.1779 74.5912 89.7052 70.5876C84.7853 66.1844 79.5316 66.0131 74.7821 70.5876C72.1482 73.1282 69.8195 76.1898 68.0659 79.4155C61.4989 91.5119 59.7453 104.757 59.6033 114.213Z" fill="black"/>
<ellipse cx="70.6966" cy="105.402" rx="8.33493" ry="8.37591" fill="white"/>
<ellipse cx="94.59" cy="105.402" rx="8.52015" ry="8.37591" fill="white"/>
</g>
<path d="M103.424 204H101.783L98.9023 194.439C98.7656 194.016 98.6126 193.482 98.4434 192.838C98.2741 192.193 98.1862 191.806 98.1797 191.676C98.0365 192.535 97.8086 193.476 97.4961 194.498L94.7031 204H93.0625L89.2637 189.723H91.0215L93.2773 198.541C93.5898 199.778 93.8177 200.898 93.9609 201.9C94.1367 200.709 94.3971 199.544 94.7422 198.404L97.3008 189.723H99.0586L101.744 198.482C102.057 199.492 102.32 200.631 102.535 201.9C102.659 200.976 102.893 199.85 103.238 198.521L105.484 189.723H107.242L103.424 204ZM113.756 204.195C112.174 204.195 110.924 203.714 110.006 202.75C109.094 201.786 108.639 200.449 108.639 198.736C108.639 197.011 109.062 195.641 109.908 194.625C110.761 193.609 111.904 193.102 113.336 193.102C114.677 193.102 115.738 193.544 116.52 194.43C117.301 195.309 117.691 196.471 117.691 197.916V198.941H110.318C110.351 200.198 110.667 201.152 111.266 201.803C111.871 202.454 112.721 202.779 113.814 202.779C114.967 202.779 116.106 202.538 117.232 202.057V203.502C116.66 203.749 116.116 203.925 115.602 204.029C115.094 204.14 114.479 204.195 113.756 204.195ZM113.316 194.459C112.457 194.459 111.77 194.739 111.256 195.299C110.748 195.859 110.449 196.633 110.357 197.623H115.953C115.953 196.601 115.725 195.82 115.27 195.279C114.814 194.732 114.163 194.459 113.316 194.459ZM122.086 204H120.465V188.805H122.086V204ZM129.801 204.195C128.251 204.195 127.05 203.72 126.197 202.77C125.351 201.812 124.928 200.462 124.928 198.717C124.928 196.926 125.357 195.543 126.217 194.566C127.083 193.59 128.313 193.102 129.908 193.102C130.423 193.102 130.937 193.157 131.451 193.268C131.965 193.378 132.369 193.508 132.662 193.658L132.164 195.035C131.806 194.892 131.415 194.775 130.992 194.684C130.569 194.586 130.195 194.537 129.869 194.537C127.695 194.537 126.607 195.924 126.607 198.697C126.607 200.012 126.871 201.021 127.398 201.725C127.932 202.428 128.72 202.779 129.762 202.779C130.654 202.779 131.568 202.587 132.506 202.203V203.639C131.79 204.01 130.888 204.195 129.801 204.195ZM144.293 198.639C144.293 200.383 143.854 201.747 142.975 202.73C142.096 203.707 140.882 204.195 139.332 204.195C138.375 204.195 137.525 203.971 136.783 203.521C136.041 203.072 135.468 202.428 135.064 201.588C134.661 200.748 134.459 199.765 134.459 198.639C134.459 196.894 134.895 195.536 135.768 194.566C136.64 193.59 137.851 193.102 139.4 193.102C140.898 193.102 142.086 193.6 142.965 194.596C143.85 195.592 144.293 196.939 144.293 198.639ZM136.139 198.639C136.139 200.006 136.412 201.048 136.959 201.764C137.506 202.48 138.31 202.838 139.371 202.838C140.432 202.838 141.236 202.483 141.783 201.773C142.337 201.057 142.613 200.012 142.613 198.639C142.613 197.278 142.337 196.246 141.783 195.543C141.236 194.833 140.426 194.479 139.352 194.479C138.29 194.479 137.49 194.827 136.949 195.523C136.409 196.22 136.139 197.258 136.139 198.639ZM160.787 204V197.037C160.787 196.184 160.605 195.546 160.24 195.123C159.876 194.693 159.309 194.479 158.541 194.479C157.532 194.479 156.786 194.768 156.305 195.348C155.823 195.927 155.582 196.819 155.582 198.023V204H153.961V197.037C153.961 196.184 153.779 195.546 153.414 195.123C153.049 194.693 152.48 194.479 151.705 194.479C150.689 194.479 149.944 194.785 149.469 195.396C149 196.002 148.766 196.998 148.766 198.385V204H147.145V193.297H148.463L148.727 194.762H148.805C149.111 194.241 149.54 193.834 150.094 193.541C150.654 193.248 151.279 193.102 151.969 193.102C153.642 193.102 154.736 193.707 155.25 194.918H155.328C155.647 194.358 156.109 193.915 156.715 193.59C157.32 193.264 158.01 193.102 158.785 193.102C159.996 193.102 160.901 193.414 161.5 194.039C162.105 194.658 162.408 195.65 162.408 197.018V204H160.787ZM170.279 204.195C168.697 204.195 167.447 203.714 166.529 202.75C165.618 201.786 165.162 200.449 165.162 198.736C165.162 197.011 165.585 195.641 166.432 194.625C167.285 193.609 168.427 193.102 169.859 193.102C171.201 193.102 172.262 193.544 173.043 194.43C173.824 195.309 174.215 196.471 174.215 197.916V198.941H166.842C166.874 200.198 167.19 201.152 167.789 201.803C168.395 202.454 169.244 202.779 170.338 202.779C171.49 202.779 172.63 202.538 173.756 202.057V203.502C173.183 203.749 172.639 203.925 172.125 204.029C171.617 204.14 171.002 204.195 170.279 204.195ZM169.84 194.459C168.98 194.459 168.294 194.739 167.779 195.299C167.271 195.859 166.972 196.633 166.881 197.623H172.477C172.477 196.601 172.249 195.82 171.793 195.279C171.337 194.732 170.686 194.459 169.84 194.459ZM185.641 202.857C185.927 202.857 186.204 202.838 186.471 202.799C186.738 202.753 186.949 202.708 187.105 202.662V203.902C186.93 203.987 186.669 204.055 186.324 204.107C185.986 204.166 185.68 204.195 185.406 204.195C183.336 204.195 182.301 203.105 182.301 200.924V194.557H180.768V193.775L182.301 193.102L182.984 190.816H183.922V193.297H187.027V194.557H183.922V200.855C183.922 201.5 184.075 201.995 184.381 202.34C184.687 202.685 185.107 202.857 185.641 202.857ZM198.492 198.639C198.492 200.383 198.053 201.747 197.174 202.73C196.295 203.707 195.081 204.195 193.531 204.195C192.574 204.195 191.725 203.971 190.982 203.521C190.24 203.072 189.667 202.428 189.264 201.588C188.86 200.748 188.658 199.765 188.658 198.639C188.658 196.894 189.094 195.536 189.967 194.566C190.839 193.59 192.05 193.102 193.6 193.102C195.097 193.102 196.285 193.6 197.164 194.596C198.049 195.592 198.492 196.939 198.492 198.639ZM190.338 198.639C190.338 200.006 190.611 201.048 191.158 201.764C191.705 202.48 192.509 202.838 193.57 202.838C194.632 202.838 195.436 202.483 195.982 201.773C196.536 201.057 196.812 200.012 196.812 198.639C196.812 197.278 196.536 196.246 195.982 195.543C195.436 194.833 194.625 194.479 193.551 194.479C192.49 194.479 191.689 194.827 191.148 195.523C190.608 196.22 190.338 197.258 190.338 198.639Z" fill="black"/>
<defs>
<clipPath id="clip0_8_37">
<rect width="193" height="153" fill="white" transform="translate(48 28)"/>
</clipPath>
</defs>
</svg>
